<svg xmlns="http://www.w3.org/2000/svg" width="126" height="126" fill="none" viewBox="0 0 126 126">
  <path fill="#359E11" fill-rule="evenodd" d="M71.397 3.515c-4.686-4.687-12.284-4.687-16.97 0L43.028 14.912H26.912c-6.628 0-12 5.372-12 12V43.03L3.515 54.426c-4.687 4.687-4.687 12.285 0 16.971l11.397 11.397v16.118c0 6.627 5.372 12 12 12h16.117l11.397 11.397c4.687 4.686 12.285 4.686 16.971 0l11.397-11.397h16.118c6.627 0 12-5.373 12-12V82.794l11.397-11.397c4.686-4.686 4.686-12.284 0-16.97l-11.397-11.398V26.912c0-6.628-5.373-12-12-12H82.794L71.397 3.515Zm18.477 49.777a6 6 0 1 0-8.486-8.485L55.921 70.274 45.314 59.668a6 6 0 1 0-8.485 8.485l14.425 14.425a6.6 6.6 0 0 0 9.334 0l29.286-29.286Z" clip-rule="evenodd"/>
</svg>
